<?xml version="1.0" encoding="UTF-8" standalone="no"?>
<!DOCTYPE svg PUBLIC "-//W3C//DTD SVG 1.1//EN" "http://www.w3.org/Graphics/SVG/1.1/DTD/svg11.dtd">
<svg width="100%" height="100%" viewBox="0 0 48 48" version="1.1" xmlns="http://www.w3.org/2000/svg" xmlns:xlink="http://www.w3.org/1999/xlink" xml:space="preserve" xmlns:serif="http://www.serif.com/" style="fill-rule:evenodd;clip-rule:evenodd;stroke-linejoin:round;stroke-miterlimit:2;">
    <g transform="matrix(1,0,0,1,-1254.72,4.26326e-14)">
        <g id="Icon" transform="matrix(0.0900883,0,0,0.0900883,1239.41,108.362)">
            <rect x="169.897" y="-1202.84" width="532.811" height="532.811" style="fill:none;"/>
            <g transform="matrix(3.12208,0,0,3.12208,-534.505,-1909.77)">
                <g transform="matrix(1,0,0,1,0,-112.601)">
                    <path d="M320.831,460.486C325.238,460.716 326.12,458.523 324.16,455.442C322.582,453.02 322.688,450.599 324.332,448.178C326.513,444.436 324.378,443.141 321.283,443.371C318.05,443.462 316.019,442.23 314.436,440.006C312.938,436.918 310.141,436.898 308.451,439.739C306.997,441.889 304.855,443.492 300.575,443.445C296.944,443.399 295.788,446.047 298.9,449.086C299.515,449.9 299.95,450.107 299.804,452.024C299.728,453.014 299.439,454.157 298.768,455.48C296.676,458.224 296.233,460.329 301.755,460.185C305.378,460.376 307.43,461.405 308.289,463.301C309.375,467.703 312.96,467.621 314.666,463.72C315.838,461.412 318.045,460.595 320.831,460.486" style="fill:rgb(11,64,156);"/>
                </g>
                <g transform="matrix(1,0,0,1,0,-57.7213)">
                    <path d="M280.131,419.095L275.178,421.974C274.746,422.093 274.63,421.955 274.939,421.496L278.305,418.973L287.57,412.375C290.375,410.108 293.333,408.764 296.452,408.397C302.603,407.376 307.05,409.537 309.707,414.161C310.447,415.885 311.506,416.131 312.452,414.263C315.717,409.441 320.466,407.017 328.266,408.397C334.391,411.49 340.921,416.593 347.016,421.469C347.054,421.561 346.923,421.68 346.75,421.57L342.65,418.829C342.6,419.209 342.404,419.515 342.068,419.747L342.09,422.949C341.135,424.851 338.816,424.507 338.018,422.936L338.039,419.792C338.152,418.487 338.302,417.258 338.492,416.11L335.024,413.958C334.457,413.595 333.824,413.58 333.656,414.079L333.73,420.454C333.116,423.095 329.196,422.88 328.707,420.509L328.595,412.531C328.582,411.397 328.015,410.727 326.813,410.592L322.167,410.889C321.435,410.838 321.317,411.177 321.661,411.809L324.691,416.603C324.862,417.502 324.564,418.21 323.938,418.834L323.153,419.388C322.322,419.776 321.357,419.96 320.506,419.549L317.026,414.13C316.861,414.003 316.658,413.978 316.529,414.157L313.932,417.592C313.618,418.363 313.737,418.984 314.206,419.482L322.187,424.171C323.777,425.289 322.598,428.921 319.311,428.094C317.824,427.842 316.433,427.126 315.141,425.921C314.715,425.603 314.152,425.731 313.989,426.071L313.535,427.038L313.542,429.011C314.281,430.14 315.297,430.84 316.523,431.215C317.649,431.684 318.775,432.36 319.595,433.074C320.122,433.694 320.061,434.285 319.611,434.856L318.532,435.925C317.837,436.205 317.169,436.161 316.528,435.787L314.435,434.636C314.266,434.557 313.92,434.632 313.907,434.873L313.973,436.654L313.84,440.322C312.865,442.602 309.619,442.704 308.603,440.169L308.666,434.528C308.677,434.305 308.593,434.131 308.116,434.312L305.713,435.828C304.81,436.245 304.03,436.326 303.422,435.701L302.336,434.026C301.903,433.396 301.963,432.792 302.534,432.217L304.464,431.367L307.302,430.164C308.134,429.741 308.639,429.191 308.763,428.384L308.7,425.352C306.882,425.224 305.063,426.26 303.245,428.05C302.359,428.718 301.582,428.463 300.874,427.61L299.937,426.155C299.676,425.503 299.824,424.961 300.345,424.508L302.278,423.217L308.02,420.072C309.02,419.456 309.357,418.578 308.893,417.384L305.865,413.391C305.582,412.931 305.214,412.869 304.949,413.398L301.632,418.267C300.953,418.826 300.195,418.959 299.37,418.737L298.274,418.302C297.408,417.739 297.305,416.887 297.885,416.073L300.76,411.971C301.211,411.071 300.942,410.567 300.038,410.414L295.81,410.354C294.674,410.475 293.741,411.014 293.403,412.344L293.448,420.635C293.272,421.508 292.633,421.913 291.643,421.962L290.173,421.968C289.018,421.785 288.466,421.356 288.439,420.314L288.608,414.522L288.153,414.507L284.035,416.796L284.221,422.792C283.626,425.019 280.563,424.832 280.152,422.974L280.131,419.095Z" style="fill:rgb(11,64,156);"/>
                </g>
                <g transform="matrix(1,0,0,1,0,-171.596)">
                    <path d="M326.816,498.061C320.441,498.468 318.375,497.525 315.373,494.259C314.129,492.807 315.4,491.941 317.38,491.148C336.726,478.181 333.062,458.179 325.111,436.865C324.32,435.651 325.356,434.948 326.416,435.972C350.755,458.151 360.833,475.401 360.637,503.058C360.132,511.365 357.763,519.702 353.782,526.718C352.69,527.989 351.397,528.648 349.875,527.836L346.07,525.276C344.743,524.208 344.679,523.17 345.723,522.352L347.562,521.522C348.62,521.042 347.059,519.4 346.361,520.075L342.285,522.104C341.323,522.792 340.501,522.738 339.608,522.216C338.636,521.699 337.686,521.03 336.748,520.273C336.379,519.472 336.415,518.783 337.185,518.342C338.949,517.344 340.534,516.48 342.034,515.681C342.815,515.108 342.934,514.576 342.298,514.091L341.306,513.128C339.894,512.075 334.887,515.905 333.105,516.989C332.087,517.513 331.045,517.637 329.964,517.129C328.186,515.696 327.089,514.034 326.67,512.142C326.388,510.521 326.74,510.159 327.693,510.23L334.241,510.148C334.802,510.075 334.903,509.631 334.958,508.985L334.894,507.895C334.725,507.327 334.384,507.025 333.801,507.097L328.177,507.353C326.794,506.976 326.432,505.847 326.662,504.574C327.152,503.163 327.867,502.042 328.769,501.165C329.817,499.905 331.167,499.706 332.836,500.623C335.256,501.761 337.625,502.962 339.699,504.549C340.297,504.912 340.809,504.927 341.201,504.457L342.175,503.193C342.444,502.807 342.473,502.422 342.19,502.036L336.941,499.348C335.916,498.535 335.795,497.758 336.425,497.009L338.888,494.422C339.519,494.077 340.119,494.044 340.681,494.404C342.593,495.441 344.841,496.334 346.416,497.516C346.757,497.837 346.88,497.67 347.361,497.472L347.754,497.173C348.108,496.83 348.068,496.46 347.525,496.053C346.614,495.307 345.444,494.633 344.792,493.815C344.195,492.82 344.352,492.021 345.479,491.474C347.352,490.678 348.89,490.019 350.131,489.489C350.633,489.124 350.713,488.695 350.387,488.202L349.622,487.429C349.019,486.87 348.415,486.884 347.812,487.238L343.709,490.149C342.539,490.558 341.761,490.36 341.419,489.489L341.475,486.022C341.69,485.009 339.587,484.769 339.534,485.597C339.574,487.19 339.479,488.72 338.966,490.057C338.677,491.186 338.042,492.019 336.856,492.379L332.946,493.779L333.157,487.51C332.774,486.11 330.13,486.14 329.747,487.582C329.574,490.105 329.566,492.698 329.637,495.309C329.697,497.07 328.835,498.054 326.816,498.061" style="fill:rgb(11,64,156);"/>
                </g>
                <g transform="matrix(1,0,0,1,0,-193.891)">
                    <path d="M279.998,548.252L274.024,551.883C271.944,553.354 270.449,553.071 269.512,551.117C262.394,541.278 260.81,528.592 261.357,518.072C261.974,501.235 269.467,487.88 278.877,475.495C289.075,457.888 289.242,445.016 283.81,434.786C282.413,433.471 283.515,432.537 285.608,433.423C309.413,447.628 327.951,467.384 326.005,490.422C325.125,496.748 323.758,502.837 318.701,507.122C317.098,509.025 313.357,509.006 313.549,506.528C313.9,504.288 314.924,502.4 317.003,500.836L318.938,500.01C319.312,499.802 319.451,499.273 319.162,498.905L318.782,498.28C318.618,497.945 318.261,497.894 317.744,498.079C316.126,498.605 314.546,499.202 313.046,499.948L313.109,492.906C313.09,491.851 312.902,491.441 311.567,492.058L309.955,492.937C309.371,493.439 309.2,493.94 309.265,494.441L309.695,499.432C308.923,499.645 308.309,499.543 307.787,499.258L305.621,497.936C305.2,497.573 304.823,497.51 304.488,497.734L304.12,498.193C303.963,498.547 304.026,498.855 304.385,499.103L308.035,501.684C309.18,502.522 309.968,503.52 309.904,504.903C309.998,506.396 309.982,507.82 309.445,509.016L303.041,505.336C302.47,505.046 302.033,505.076 301.757,505.499L301.196,506.557C301.012,507.053 300.922,507.493 301.242,507.918L308.724,511.93C309.461,512.555 309.915,513.312 309.943,514.266C310.123,515.776 309.391,517.479 306.379,519.592C305.846,520.057 305.239,520.026 304.875,519.551L302.109,514.981C301.724,514.485 301.152,514.076 300.305,514.397L299.182,514.886C298.612,515.132 298.538,515.619 298.912,516.083C300.266,518.095 301.601,520.115 302.836,522.181C301.415,522.782 299.529,523.107 296.809,522.94C294.559,522.944 293.195,522.008 292.626,520.285L292.931,512.256C292.525,511.055 290.804,511.166 290.431,512.224L290.225,515.001C290.01,516.213 289.268,516.849 288.45,516.892L284.807,516.832C283.808,516.747 283.34,516.26 283.307,515.442L283.525,510.681C283.124,509.775 281.744,509.723 281.541,510.875L281.518,512.288C281.353,513.631 280.526,514.142 278.87,513.613L275.109,512.018C274.391,511.689 273.786,511.674 273.332,512.077L272.127,513.728L279.413,517.687C278.696,518.627 277.65,519.392 276.319,520.007C275.523,520.289 274.793,520.664 275.215,521.496C275.362,522.113 275.74,522.083 276.557,521.885L283.535,520.566C286.367,519.866 288.483,521.673 286.393,523.497C284.939,524.881 283.268,525.811 281.464,526.461C280.106,527.1 280.853,528.869 282.598,528.379L290.132,524.659C291.683,524.257 292.836,524.639 293.686,525.315C294.92,526.502 295.746,528.13 296.453,529.888C296.725,531.15 296.396,531.78 295.35,531.655L289.753,531.354C288.585,531.187 287.792,531.477 287.679,532.452L287.702,533.783C287.919,534.236 288.3,534.596 288.945,534.59L295.234,534.699C296.002,534.607 296.694,535.074 296.462,536.041C296.318,537.851 295.437,539.461 293.183,540.699C292.162,541.257 291.461,541.41 290.125,540.995C287.888,539.868 285.65,538.741 283.412,537.614C282.65,537.15 282.01,537.109 281.6,537.869L280.712,539.187C280.316,539.903 280.493,540.42 281.503,540.646C283.198,541.176 285.015,541.775 285.468,543.273C285.994,545.02 284.451,547.192 281.273,546.746C279.328,546.198 277.786,545.384 276.456,544.429C275.278,543.911 274.461,545.223 275.321,546.026L279.998,548.252Z" style="fill:rgb(139,24,26);"/>
                </g>
            </g>
        </g>
    </g>
</svg>
