<?xml version="1.0" encoding="UTF-8" standalone="no"?>
<!DOCTYPE svg PUBLIC "-//W3C//DTD SVG 1.1//EN" "http://www.w3.org/Graphics/SVG/1.1/DTD/svg11.dtd">
<svg width="100%" height="100%" viewBox="0 0 49 48" version="1.1" xmlns="http://www.w3.org/2000/svg" xmlns:xlink="http://www.w3.org/1999/xlink" xml:space="preserve" xmlns:serif="http://www.serif.com/" style="fill-rule:evenodd;clip-rule:evenodd;stroke-linejoin:round;stroke-miterlimit:2;">
    <g transform="matrix(1,0,0,1,-1546,0)">
        <g id="AirConditioner" transform="matrix(0.0900883,0,0,0.0900883,1530.91,108.362)">
            <rect x="169.897" y="-1202.84" width="532.811" height="532.811" style="fill:none;"/>
            <clipPath id="_clip1">
                <rect x="169.897" y="-1202.84" width="532.811" height="532.811"/>
            </clipPath>
            <g clip-path="url(#_clip1)">
                <g transform="matrix(6.13811,0,0,6.13811,-1810.51,-3261.9)">
                    <g transform="matrix(-1,0,0,1,732.086,-34.2859)">
                        <path d="M366.043,369.741C342.073,369.741 322.641,389.173 322.641,413.143C322.641,437.113 342.073,456.545 366.043,456.545C390.013,456.545 409.445,437.113 409.445,413.143C409.445,389.173 390.013,369.741 366.043,369.741" style="fill:rgb(27,58,163);"/>
                    </g>
                    <g transform="matrix(-1,0,0,1,733.113,-36.4719)">
                        <path d="M366.556,408.037C363.133,408.037 360.358,410.812 360.358,414.236C360.358,417.66 363.133,420.435 366.556,420.435C369.98,420.435 372.756,417.66 372.756,414.236C372.756,410.812 369.98,408.037 366.556,408.037" style="fill:white;"/>
                    </g>
                    <g transform="matrix(1,0,0,1,4.54747e-13,-74.486)">
                        <path d="M369.354,444.29C367.541,443.71 365.625,443.765 363.655,444.146C362.204,438.504 359.896,432.947 356.494,427.419C355.021,424.567 355.905,422.905 359.527,422.616C362.967,422.195 365.866,422.858 368.374,424.302C370.977,425.517 372.151,427.543 371.913,430.368C371.864,435.29 371.151,439.98 369.354,444.29" style="fill:white;"/>
                    </g>
                    <g transform="matrix(1,0,0,1,4.54747e-13,-68.3116)">
                        <path d="M374.214,442.426C373.369,440.721 371.996,439.383 370.351,438.235C373.393,433.265 375.776,427.74 377.377,421.45C378.4,418.408 380.208,417.885 382.937,420.285C385.634,422.462 387.176,425.005 387.885,427.81C388.824,430.525 388.186,432.778 385.992,434.574C382.424,437.965 378.56,440.717 374.214,442.426" style="fill:white;"/>
                    </g>
                    <g transform="matrix(1,0,0,1,4.54747e-13,-42.542)">
                        <path d="M374.429,422.902C375.024,421.094 374.982,419.177 374.616,417.205C380.269,415.796 385.844,413.53 391.396,410.169C394.259,408.718 395.915,409.614 396.176,413.238C396.571,416.681 395.888,419.575 394.425,422.072C393.191,424.666 391.156,425.824 388.333,425.566C383.411,425.48 378.726,424.732 374.429,422.902" style="fill:white;"/>
                    </g>
                    <g transform="matrix(1,0,0,1,4.54747e-13,-11.0225)">
                        <path d="M370.009,396.237C371.704,395.371 373.024,393.981 374.153,392.323C379.159,395.303 384.713,397.619 391.023,399.142C394.077,400.127 394.622,401.929 392.256,404.687C390.112,407.41 387.589,408.983 384.792,409.727C382.089,410.699 379.829,410.089 378.006,407.918C374.571,404.391 371.771,400.562 370.009,396.237" style="fill:white;"/>
                    </g>
                    <g transform="matrix(1,0,0,1,4.54747e-13,1.2158)">
                        <path d="M363.503,384.315C365.31,384.913 367.227,384.875 369.2,384.513C370.598,390.168 372.855,395.747 376.205,401.306C377.651,404.171 376.752,405.825 373.127,406.08C369.683,406.469 366.791,405.779 364.296,404.313C361.705,403.073 360.55,401.037 360.814,398.213C360.909,393.292 361.665,388.609 363.503,384.315" style="fill:white;"/>
                    </g>
                    <g transform="matrix(1,0,0,1,4.54747e-13,-4.9969)">
                        <path d="M358.773,386.133C359.675,387.81 361.093,389.1 362.775,390.192C359.904,395.261 357.708,400.864 356.321,407.205C355.402,410.28 353.612,410.864 350.804,408.558C348.035,406.473 346.408,403.984 345.605,401.204C344.574,398.522 345.135,396.249 347.267,394.38C350.718,390.871 354.487,387.989 358.773,386.133" style="fill:white;"/>
                    </g>
                    <g transform="matrix(1,0,0,1,4.54747e-13,-31.0158)">
                        <path d="M358.343,405.798C357.757,407.609 357.806,409.525 358.181,411.496C352.534,412.929 346.97,415.219 341.431,418.605C338.575,420.068 336.915,419.179 336.638,415.556C336.228,412.115 336.9,409.218 338.351,406.714C339.574,404.115 341.604,402.948 344.429,403.195C349.351,403.259 354.038,403.987 358.343,405.798" style="fill:white;"/>
                    </g>
                    <g transform="matrix(1,0,0,1,4.54747e-13,-62.479)">
                        <path d="M362.817,432.402C361.134,433.291 359.833,434.699 358.727,436.372C353.68,433.461 348.095,431.222 341.765,429.785C338.698,428.842 338.128,427.048 340.456,424.258C342.563,421.505 345.064,419.898 347.85,419.116C350.54,418.107 352.809,418.686 354.661,420.832C358.143,424.311 360.995,428.102 362.817,432.402" style="fill:white;"/>
                    </g>
                </g>
            </g>
        </g>
    </g>
</svg>
