<?xml version="1.0" encoding="UTF-8" standalone="no"?>
<!DOCTYPE svg PUBLIC "-//W3C//DTD SVG 1.1//EN" "http://www.w3.org/Graphics/SVG/1.1/DTD/svg11.dtd">
<svg width="100%" height="100%" viewBox="0 0 48 48" version="1.1" xmlns="http://www.w3.org/2000/svg" xmlns:xlink="http://www.w3.org/1999/xlink" xml:space="preserve" xmlns:serif="http://www.serif.com/" style="fill-rule:evenodd;clip-rule:evenodd;stroke-linejoin:round;stroke-miterlimit:2;">
    <g transform="matrix(1,0,0,1,-1430.51,4.26326e-14)">
        <g id="Icon" transform="matrix(0.0900883,0,0,0.0900883,1415.21,108.362)">
            <rect x="169.897" y="-1202.84" width="532.811" height="532.811" style="fill:none;"/>
            <clipPath id="_clip1">
                <rect x="169.897" y="-1202.84" width="532.811" height="532.811"/>
            </clipPath>
            <g clip-path="url(#_clip1)">
                <g transform="matrix(6.10517,0,0,6.10517,-1173.2,-3259.16)">
                    <g transform="matrix(-1,0,0,1,527.259,-31.0955)">
                        <path d="M263.629,367.912C239.53,367.912 219.993,387.448 219.993,411.548C219.993,435.647 239.53,455.184 263.629,455.184C287.729,455.184 307.265,435.647 307.265,411.548C307.265,387.448 287.729,367.912 263.629,367.912" style="fill:rgb(174,39,30);"/>
                    </g>
                    <g transform="matrix(1,0,0,1,4.54747e-13,-36.9082)">
                        <path d="M279.978,440.192C275.456,443.562 270.925,444.908 265.702,444.803L260.081,444.756C250.062,444.168 243.16,438.965 239.771,428.559C238.842,421.358 239.792,413.669 248.187,404.042C247.345,408.083 247.305,411.975 249.91,415.378C251.974,418.151 253.486,420.985 254.403,423.886C254.63,419.172 250.889,415.439 250.298,407.21C250.896,400.732 254.054,394.768 257.354,388.966C256.532,393.423 257.114,397.393 259.397,400.77C260.865,395.18 263.625,396.476 263.803,384C267.238,390.376 271.477,399.613 271.911,410.928C274.825,407.185 277.496,403.385 277.717,399.001C279.708,403.457 281.229,408.1 281.946,413.066C284.599,411.32 286.866,410.194 290.12,409.399C286.808,413.228 285.029,417.144 286.609,424.17C287.442,430.85 285.522,436.318 279.978,440.192" style="fill:white;"/>
                    </g>
                    <g transform="matrix(1,0,0,1,4.54747e-13,-7.5773)">
                        <path d="M263.985,412.907C270.7,412.419 274.34,408.949 273.722,402.992C272.841,400.08 273.099,397.396 273.88,394.816C272.325,395.661 271.187,396.853 270.431,398.364C270.229,394.438 269.068,391.396 267.133,389.068C267.48,390.989 267.253,392.596 266.133,393.716C264.379,391.733 264.006,389.319 264.384,386.67C262.402,389.832 261.036,393.469 260.786,397.964C259.18,396.512 258.817,395.079 258.637,393.117C257.724,394.729 257.118,396.801 256.738,399.214C255.614,398.261 254.415,397.775 253.39,397.465C254.255,398.535 254.896,399.717 255.081,401.128C255.17,403.128 254.672,404.744 254.889,406.36C256.11,410.712 259.648,412.727 263.985,412.907" style="fill:rgb(175,39,36);"/>
                    </g>
                </g>
            </g>
        </g>
    </g>
</svg>
