<?xml version="1.0" encoding="UTF-8" standalone="no"?><!DOCTYPE svg PUBLIC "-//W3C//DTD SVG 1.1//EN" "http://www.w3.org/Graphics/SVG/1.1/DTD/svg11.dtd"><svg viewBox="0 0 7 3" version="1.1" xmlns="http://www.w3.org/2000/svg" xmlns:xlink="http://www.w3.org/1999/xlink" xml:space="preserve"  style="fill-rule:evenodd;clip-rule:evenodd;stroke-linejoin:round;stroke-miterlimit:2;"><rect id="Artboard1" x="0" y="-0" width="6.098" height="2.069" style="fill:none;"/><g><path d="M0.78,1.36l0.358,0.022c-0.017,0.155 -0.075,0.275 -0.173,0.358c-0.099,0.083 -0.22,0.125 -0.364,0.125c-0.172,-0 -0.312,-0.058 -0.418,-0.172c-0.106,-0.114 -0.16,-0.273 -0.16,-0.474c0,-0.2 0.051,-0.361 0.151,-0.483c0.101,-0.123 0.241,-0.184 0.422,-0.184c0.168,-0 0.298,0.046 0.388,0.139c0.09,0.093 0.142,0.217 0.154,0.37l-0.365,0.02c-0,-0.085 -0.017,-0.146 -0.049,-0.184c-0.033,-0.038 -0.071,-0.057 -0.115,-0.057c-0.123,0 -0.184,0.124 -0.184,0.372c-0,0.139 0.016,0.234 0.047,0.284c0.033,0.05 0.078,0.074 0.135,0.074c0.103,0 0.161,-0.07 0.173,-0.21Zm1.65,0.486l-0.427,-0l-0.22,-0.479l-0.132,0.184l-0,0.295l-0.369,-0l-0,-1.275l0.369,-0l-0,0.526l0.35,-0.526l0.351,-0l-0.321,0.466l0.399,0.809Z" style="fill:#8b181a;fill-rule:nonzero;"/><path d="M4.931,1.508l-0,0.304l-0.96,-0l0,-1.275l0.96,0l-0,0.295l-0.576,-0l0,0.185l0.465,-0l-0,0.283l-0.465,-0l0,0.208l0.576,0Zm0.022,-0.066l0.363,-0.066c0.03,0.103 0.108,0.155 0.235,0.155c0.098,0 0.147,-0.026 0.147,-0.078c-0,-0.028 -0.012,-0.049 -0.034,-0.064c-0.023,-0.015 -0.063,-0.029 -0.122,-0.04c-0.223,-0.043 -0.366,-0.099 -0.43,-0.168c-0.063,-0.069 -0.095,-0.15 -0.095,-0.244c0,-0.12 0.046,-0.22 0.137,-0.299c0.091,-0.08 0.222,-0.12 0.393,-0.12c0.259,0 0.43,0.104 0.514,0.313l-0.323,0.098c-0.034,-0.085 -0.102,-0.128 -0.205,-0.128c-0.085,0 -0.128,0.026 -0.128,0.079c0,0.024 0.01,0.042 0.029,0.055c0.02,0.013 0.057,0.026 0.112,0.037c0.153,0.032 0.261,0.06 0.325,0.084c0.064,0.025 0.118,0.067 0.16,0.128c0.043,0.06 0.064,0.131 0.064,0.213c0,0.129 -0.052,0.233 -0.156,0.314c-0.105,0.08 -0.242,0.12 -0.412,0.12c-0.31,0 -0.502,-0.13 -0.574,-0.389" style="fill:#0b409c;fill-rule:nonzero;"/><path d="M3.264,1.535c0.062,0.003 0.074,-0.028 0.047,-0.071c-0.022,-0.033 -0.021,-0.067 0.002,-0.1c0.03,-0.052 0.001,-0.07 -0.042,-0.067c-0.045,0.001 -0.073,-0.016 -0.095,-0.047c-0.021,-0.043 -0.06,-0.043 -0.083,-0.004c-0.021,0.03 -0.05,0.052 -0.11,0.052c-0.05,-0.001 -0.066,0.036 -0.023,0.078c0.008,0.011 0.014,0.014 0.012,0.041c-0.001,0.014 -0.005,0.03 -0.014,0.048c-0.029,0.038 -0.035,0.067 0.042,0.065c0.05,0.003 0.078,0.017 0.09,0.044c0.015,0.061 0.065,0.06 0.089,0.005c0.016,-0.032 0.047,-0.043 0.085,-0.044" style="fill:#0b409c;"/><path d="M2.699,1.722l-0.069,0.04c-0.006,0.002 -0.007,-0 -0.003,-0.007l0.047,-0.035l0.128,-0.091c0.039,-0.032 0.081,-0.051 0.124,-0.056c0.085,-0.014 0.147,0.016 0.184,0.08c0.01,0.024 0.025,0.028 0.038,0.002c0.045,-0.067 0.111,-0.101 0.22,-0.082c0.085,0.043 0.175,0.114 0.26,0.182c0.001,0.001 -0.001,0.003 -0.004,0.001l-0.057,-0.038c-0,0.005 -0.003,0.01 -0.008,0.013l0.001,0.044c-0.014,0.027 -0.046,0.022 -0.057,0l0,-0.043c0.002,-0.019 0.004,-0.036 0.007,-0.052l-0.048,-0.029c-0.008,-0.006 -0.017,-0.006 -0.019,0.001l0.001,0.089c-0.009,0.036 -0.063,0.033 -0.07,0.001l-0.002,-0.111c0,-0.016 -0.008,-0.025 -0.024,-0.027l-0.065,0.004c-0.01,-0.001 -0.012,0.004 -0.007,0.013l0.042,0.066c0.002,0.013 -0.002,0.023 -0.01,0.031l-0.011,0.008c-0.012,0.005 -0.025,0.008 -0.037,0.002l-0.048,-0.075c-0.003,-0.002 -0.006,-0.002 -0.007,0l-0.036,0.048c-0.005,0.011 -0.003,0.019 0.003,0.026l0.111,0.065c0.022,0.016 0.006,0.066 -0.04,0.055c-0.02,-0.004 -0.04,-0.014 -0.058,-0.03c-0.005,-0.005 -0.013,-0.003 -0.016,0.002l-0.006,0.013l0,0.028c0.01,0.015 0.025,0.025 0.042,0.03c0.015,0.007 0.031,0.016 0.042,0.026c0.008,0.009 0.007,0.017 0.001,0.025l-0.015,0.015c-0.01,0.004 -0.019,0.003 -0.028,-0.002l-0.029,-0.016c-0.003,-0.001 -0.008,-0 -0.008,0.003l0.001,0.025l-0.002,0.051c-0.013,0.031 -0.058,0.033 -0.072,-0.002l0,-0.079c0.001,-0.003 -0.001,-0.005 -0.007,-0.003l-0.034,0.021c-0.012,0.006 -0.023,0.007 -0.031,-0.001l-0.015,-0.024c-0.006,-0.008 -0.006,-0.017 0.002,-0.025l0.027,-0.012l0.04,-0.016c0.011,-0.006 0.018,-0.014 0.02,-0.025l-0.001,-0.042c-0.025,-0.002 -0.051,0.012 -0.076,0.037c-0.012,0.01 -0.023,0.006 -0.033,-0.006l-0.013,-0.02c-0.003,-0.009 -0.001,-0.017 0.006,-0.023l0.027,-0.018l0.08,-0.044c0.013,-0.008 0.018,-0.02 0.012,-0.037l-0.042,-0.055c-0.004,-0.007 -0.009,-0.008 -0.013,-0l-0.046,0.067c-0.01,0.008 -0.02,0.01 -0.032,0.007l-0.015,-0.006c-0.012,-0.008 -0.013,-0.02 -0.005,-0.031l0.04,-0.057c0.006,-0.013 0.002,-0.02 -0.01,-0.022l-0.059,-0.001c-0.016,0.002 -0.029,0.01 -0.033,0.028l0,0.115c-0.002,0.012 -0.011,0.018 -0.025,0.019l-0.02,-0c-0.016,-0.003 -0.024,-0.009 -0.024,-0.023l0.002,-0.081l-0.006,0l-0.058,0.032l0.003,0.083c-0.008,0.031 -0.051,0.029 -0.057,0.003l0,-0.054Z" style="fill:#0b409c;"/><path d="M3.348,1.237c-0.089,0.006 -0.118,-0.007 -0.159,-0.053c-0.018,-0.02 0,-0.032 0.028,-0.043c0.268,-0.18 0.217,-0.458 0.107,-0.754c-0.011,-0.017 0.003,-0.027 0.018,-0.012c0.338,0.308 0.478,0.547 0.475,0.931c-0.007,0.116 -0.04,0.232 -0.095,0.329c-0.015,0.018 -0.033,0.027 -0.054,0.016l-0.053,-0.036c-0.018,-0.015 -0.019,-0.029 -0.005,-0.041l0.026,-0.011c0.014,-0.007 -0.007,-0.03 -0.017,-0.02l-0.057,0.028c-0.013,0.01 -0.024,0.009 -0.037,0.002c-0.013,-0.008 -0.026,-0.017 -0.039,-0.027c-0.006,-0.012 -0.005,-0.021 0.006,-0.027c0.024,-0.014 0.046,-0.026 0.067,-0.037c0.011,-0.008 0.012,-0.016 0.004,-0.022l-0.014,-0.014c-0.02,-0.014 -0.089,0.039 -0.114,0.054c-0.014,0.007 -0.029,0.009 -0.044,0.002c-0.024,-0.02 -0.04,-0.043 -0.045,-0.069c-0.004,-0.023 0.001,-0.028 0.014,-0.027l0.091,-0.001c0.007,-0.001 0.009,-0.007 0.01,-0.016l-0.001,-0.015c-0.003,-0.008 -0.007,-0.012 -0.015,-0.011l-0.079,0.003c-0.019,-0.005 -0.024,-0.021 -0.021,-0.039c0.007,-0.019 0.017,-0.035 0.03,-0.047c0.014,-0.017 0.033,-0.02 0.056,-0.007c0.034,0.015 0.067,0.032 0.095,0.054c0.009,0.005 0.016,0.005 0.021,-0.001l0.014,-0.018c0.004,-0.005 0.004,-0.01 0,-0.016l-0.073,-0.037c-0.014,-0.011 -0.016,-0.022 -0.007,-0.033l0.034,-0.036c0.009,-0.004 0.017,-0.005 0.025,0c0.027,0.015 0.058,0.027 0.08,0.043c0.005,0.005 0.006,0.003 0.013,-0l0.005,-0.004c0.005,-0.005 0.005,-0.01 -0.003,-0.016c-0.012,-0.01 -0.029,-0.02 -0.038,-0.031c-0.008,-0.014 -0.006,-0.025 0.01,-0.032c0.026,-0.012 0.047,-0.021 0.064,-0.028c0.007,-0.005 0.008,-0.011 0.004,-0.018l-0.011,-0.011c-0.008,-0.007 -0.016,-0.007 -0.025,-0.002l-0.057,0.04c-0.016,0.006 -0.027,0.003 -0.032,-0.009l0.001,-0.048c0.003,-0.014 -0.026,-0.018 -0.027,-0.006c0.001,0.022 -0.001,0.043 -0.008,0.062c-0.004,0.016 -0.013,0.027 -0.029,0.032l-0.054,0.02l0.003,-0.087c-0.006,-0.02 -0.042,-0.02 -0.048,0c-0.002,0.036 -0.002,0.072 -0.001,0.108c0.001,0.024 -0.011,0.038 -0.039,0.038" style="fill:#0b409c;"/><path d="M2.697,1.624l-0.083,0.051c-0.029,0.02 -0.049,0.016 -0.062,-0.011c-0.099,-0.136 -0.121,-0.313 -0.114,-0.459c0.009,-0.234 0.113,-0.419 0.244,-0.591c0.141,-0.245 0.144,-0.423 0.068,-0.565c-0.019,-0.019 -0.004,-0.032 0.025,-0.019c0.331,0.197 0.588,0.471 0.561,0.791c-0.012,0.088 -0.031,0.173 -0.101,0.232c-0.022,0.027 -0.074,0.026 -0.072,-0.008c0.005,-0.031 0.019,-0.057 0.048,-0.079l0.027,-0.012c0.005,-0.002 0.007,-0.01 0.003,-0.015l-0.005,-0.009c-0.002,-0.004 -0.007,-0.005 -0.014,-0.002c-0.023,0.007 -0.045,0.015 -0.066,0.026l0.001,-0.098c-0,-0.015 -0.003,-0.021 -0.021,-0.012l-0.023,0.012c-0.008,0.007 -0.01,0.014 -0.009,0.021l0.006,0.069c-0.011,0.003 -0.019,0.002 -0.027,-0.002l-0.03,-0.018c-0.006,-0.005 -0.011,-0.006 -0.016,-0.003l-0.005,0.006c-0.002,0.005 -0.001,0.009 0.004,0.013l0.051,0.036c0.016,0.011 0.027,0.025 0.026,0.044c0.001,0.021 0.001,0.041 -0.007,0.058l-0.089,-0.052c-0.008,-0.004 -0.014,-0.003 -0.017,0.003l-0.008,0.014c-0.003,0.007 -0.004,0.013 0,0.019l0.104,0.056c0.011,0.009 0.017,0.019 0.017,0.032c0.003,0.021 -0.007,0.045 -0.049,0.074c-0.008,0.007 -0.016,0.006 -0.021,-0l-0.039,-0.064c-0.005,-0.007 -0.013,-0.012 -0.025,-0.008l-0.015,0.007c-0.008,0.003 -0.009,0.01 -0.004,0.017c0.019,0.028 0.037,0.056 0.055,0.084c-0.02,0.009 -0.046,0.013 -0.084,0.011c-0.031,-0 -0.05,-0.013 -0.058,-0.037l0.004,-0.111c-0.006,-0.017 -0.03,-0.016 -0.035,-0.001l-0.003,0.039c-0.003,0.016 -0.013,0.025 -0.024,0.026l-0.051,-0.001c-0.014,-0.001 -0.02,-0.008 -0.021,-0.019l0.003,-0.066c-0.005,-0.013 -0.024,-0.014 -0.027,0.002l-0.001,0.02c-0.002,0.019 -0.013,0.026 -0.036,0.018l-0.053,-0.022c-0.01,-0.004 -0.018,-0.005 -0.024,0.001l-0.017,0.023l0.101,0.055c-0.01,0.013 -0.024,0.024 -0.043,0.032c-0.011,0.004 -0.021,0.009 -0.015,0.021c0.002,0.008 0.007,0.008 0.019,0.005l0.096,-0.018c0.04,-0.01 0.069,0.015 0.04,0.041c-0.02,0.019 -0.043,0.032 -0.068,0.041c-0.019,0.009 -0.009,0.033 0.015,0.026l0.105,-0.051c0.022,-0.006 0.038,-0 0.049,0.009c0.018,0.016 0.029,0.039 0.039,0.063c0.004,0.018 -0.001,0.027 -0.015,0.025l-0.078,-0.004c-0.016,-0.003 -0.027,0.001 -0.029,0.015l0,0.019c0.003,0.006 0.009,0.011 0.018,0.011l0.087,0.001c0.011,-0.001 0.02,0.005 0.017,0.019c-0.002,0.025 -0.014,0.047 -0.046,0.065c-0.014,0.007 -0.023,0.009 -0.042,0.004c-0.031,-0.016 -0.062,-0.032 -0.093,-0.047c-0.011,-0.007 -0.02,-0.007 -0.025,0.003l-0.013,0.019c-0.005,0.01 -0.003,0.017 0.011,0.02c0.024,0.007 0.049,0.016 0.055,0.036c0.008,0.025 -0.014,0.055 -0.058,0.049c-0.027,-0.008 -0.048,-0.019 -0.067,-0.033c-0.016,-0.007 -0.028,0.011 -0.016,0.023l0.065,0.03Z" style="fill:#8b181a;"/></g></svg>
