<?xml version="1.0" encoding="UTF-8" standalone="no"?>
<!DOCTYPE svg PUBLIC "-//W3C//DTD SVG 1.1//EN" "http://www.w3.org/Graphics/SVG/1.1/DTD/svg11.dtd">
<svg width="100%" height="100%" viewBox="0 0 49 48" version="1.1" xmlns="http://www.w3.org/2000/svg" xmlns:xlink="http://www.w3.org/1999/xlink" xml:space="preserve" xmlns:serif="http://www.serif.com/" style="fill-rule:evenodd;clip-rule:evenodd;stroke-linejoin:round;stroke-miterlimit:2;">
    <g transform="matrix(1,0,0,1,-1489,0)">
        <g id="Refrigeration" transform="matrix(0.0900883,0,0,0.0900883,1474.59,108.362)">
            <rect x="169.897" y="-1202.84" width="532.811" height="532.811" style="fill:none;"/>
            <clipPath id="_clip1">
                <rect x="169.897" y="-1202.84" width="532.811" height="532.811"/>
            </clipPath>
            <g clip-path="url(#_clip1)">
                <g transform="matrix(6.07008,0,0,6.07008,-553.593,-3242.5)">
                    <g transform="matrix(-1,0,0,1,326.156,-33.6826)">
                        <path d="M163.078,369.7C138.839,369.7 119.19,389.35 119.19,413.588C119.19,437.827 138.839,457.477 163.078,457.477C187.317,457.477 206.966,437.827 206.966,413.588C206.966,389.35 187.317,369.7 163.078,369.7" style="fill:rgb(27,58,163);"/>
                    </g>
                    <g transform="matrix(1,0,0,1,-7.18085e-06,-33.7458)">
                        <path d="M160.279,396.992L153.418,390.223C153.042,389.744 152.964,389.252 153.35,388.787L154.449,387.798C154.985,387.477 155.447,387.522 155.833,387.948L160.011,392.176L160.1,384.438C160.131,383.444 160.806,382.867 161.707,382.882L164.294,382.888C165.455,382.818 165.88,383.295 165.992,384.606L165.828,392.355L170.275,388.008C170.855,387.441 171.211,387.365 171.757,387.787L172.573,388.659C173.074,389.138 173.211,389.616 172.643,390.142L165.914,396.806L165.948,408.721L176.376,402.801L178.815,393.923C179.099,393.225 179.459,392.946 180.157,393.109L181.376,393.447C181.88,393.644 182.088,394.051 181.867,394.772L180.353,400.658L187.013,396.971C187.724,396.671 188.536,396.607 188.906,397.189L190.397,399.751C190.683,400.534 190.657,401.362 189.905,401.846L182.802,405.456L188.581,407.141C189.335,407.28 190.03,407.478 189.803,408.599L189.596,410.047C189.323,410.568 188.734,410.737 187.943,410.406L178.893,407.898L168.698,413.733L179.119,419.471L187.956,416.926C188.711,416.768 189.341,416.909 189.603,417.564L189.845,418.804C190.01,419.456 189.779,419.797 189.055,419.992L183.325,421.78L189.912,425.415C190.85,425.879 190.983,426.597 190.642,427.464L189.078,430.004C188.722,430.728 187.88,430.954 186.969,430.492L180.087,426.493L181.972,432.716C182.143,433.328 181.912,433.724 181.309,433.919L180.222,434.203C179.543,434.459 179.065,434.286 178.864,433.528L176.219,424.246L165.908,418.488L165.94,430.417L172.606,437.223C173.06,437.657 173.08,438.09 172.764,438.524L171.688,439.629C171.136,440.019 170.682,439.921 170.256,439.479L165.809,434.866L165.819,442.802C165.827,443.59 165.536,444.32 164.521,444.389L161.728,444.422C160.828,444.379 160.292,443.728 160.284,442.918L160.23,435.253L155.725,439.546C155.271,439.993 154.817,439.998 154.363,439.55L153.625,438.689C153.041,438.237 152.864,437.75 153.373,437.259L160.195,430.366L160.079,418.48L149.857,424.224L147.305,433.345C147.037,433.985 146.508,434.364 145.942,434.261L144.828,434.038C144.057,433.672 144.065,433.351 144.092,432.626L145.671,426.65L139.506,430.23C138.399,430.895 137.249,430.733 136.624,429.578L135.573,427.667C135.102,426.787 135.332,425.903 136.457,425.332L142.929,421.53L136.964,420.049C136.507,419.949 136.219,419.602 136.274,419.111L136.528,417.425C136.86,416.909 137.361,416.877 137.879,417.01L147.267,419.359L157.096,413.759L147.159,407.796L137.841,410.459C137.19,410.647 136.765,410.515 136.537,409.847L136.259,408.326C136.167,407.674 136.611,407.503 137.166,407.366L143.281,405.843L136.137,401.738C135.44,401.191 135.244,400.529 135.547,399.809L137.128,397.102C137.818,396.471 138.495,396.557 139.357,397.07L145.788,400.677L144.163,394.827C144.01,394.225 144.17,393.789 144.67,393.535L145.995,393.199C146.567,393.035 147.011,393.11 147.266,393.823L149.704,402.809L160.2,408.714L160.279,396.992Z" style="fill:white;"/>
                    </g>
                </g>
            </g>
        </g>
    </g>
</svg>
